PathFileType	4	(X/Y/Z)	D:\MotionData\NordSprintingStudy\Test 2\Edited\JustTheBoards000001.trc
DataRate	CameraRate	NumFrames	NumMarkers	Units	OrigDataRate	OrigDataStartFrame	OrigNumFrames
200.00	200.00	       67	5	mm	200.00	235	       624
Frame#	Time	M1			M2			M3			M4			M5			
		X1	Y1	Z1	X2	Y2	Z2	X3	Y3	Z3	X4	Y4	Z4	X5	Y5	Z5	

235	1.170	917.00732	1916.81604	47.60025	901.02234	2236.82642	59.10978	1100.73767	2247.52930	58.07814	1500.20593	2267.93677	58.59897	1515.92603	1946.82092	47.61143	
236	1.175	917.05585	1916.80688	47.57520	901.04047	2236.88184	59.04926	1100.66272	2247.54321	58.10223	1500.10132	2267.90771	58.71301	1515.94165	1946.81555	47.60044	
237	1.180	917.00964	1916.82166	47.57986	901.01489	2236.86060	59.10396	1100.66785	2247.54272	58.10847	1500.19592	2267.92700	58.61216	1515.90210	1946.79578	47.61184	
238	1.185	917.02094	1916.81775	47.55862	900.97760	2236.85107	59.11683	1100.65637	2247.56128	58.10086	1500.09155	2267.95215	58.65648	1515.94373	1946.82959	47.57709	
239	1.190	916.99011	1916.79541	47.60809	901.00568	2236.86523	59.06712	1100.60046	2247.52246	58.16023	1500.17126	2267.93237	58.56089	1515.89832	1946.81018	47.61863	
240	1.195	916.97266	1916.82056	47.60034	900.93396	2236.83740	59.11378	1100.66516	2247.59058	58.06459	1500.19141	2267.94458	58.58579	1515.86755	1946.81873	47.61952	
241	1.200	917.02307	1916.83032	47.51732	901.02325	2236.86230	58.98335	1100.71375	2247.56519	58.02871	1500.16223	2267.94092	58.55707	1515.93396	1946.83838	47.53647	
242	1.205	917.04913	1916.85168	47.47543	900.99316	2236.82910	59.03913	1100.67798	2247.56104	58.06657	1500.22424	2267.98389	58.49837	1515.94067	1946.83044	47.52555	
243	1.210	917.05841	1916.84607	47.49110	900.96576	2236.84424	59.05256	1100.72314	2247.57275	57.97746	1500.24768	2267.98145	58.48265	1515.93188	1946.82483	47.54562	
244	1.215	917.09302	1916.84741	47.44814	901.09094	2236.87378	58.92707	1100.73035	2247.59375	57.98679	1500.29846	2267.97681	58.41765	1515.99756	1946.85413	47.46899	
245	1.220	917.11450	1916.84912	47.39932	901.04865	2236.88232	58.90343	1100.78943	2247.59937	57.89722	1500.33191	2268.00171	58.37862	1516.01416	1946.85754	47.43835	
246	1.225	917.10577	1916.84009	47.43663	901.08057	2236.90918	58.91817	1100.83252	2247.61548	57.84182	1500.36633	2268.00439	58.35825	1516.01038	1946.85962	47.46855	
247	1.230	917.16998	1916.88281	47.33420	901.17456	2236.93530	58.82658	1100.79321	2247.60034	57.88569	1500.47192	2268.06226	58.25780	1516.10144	1946.88074	47.36815	
248	1.235	917.21484	1916.87585	47.31525	901.16443	2236.90015	58.83950	1100.89954	2247.66040	57.77085	1500.41370	2268.03809	58.30527	1516.12329	1946.89124	47.36301	
249	1.240	917.20282	1916.89624	47.34929	901.14648	2236.89600	58.86576	1100.86694	2247.62402	57.80882	1500.47925	2268.05518	58.26015	1516.09448	1946.88367	47.39473	
250	1.245	917.24323	1916.89246	47.28325	901.23999	2236.89087	58.77873	1100.88232	2247.63452	57.83087	1500.54443	2268.05762	58.23815	1516.17200	1946.90747	47.32008	
251	1.250	917.21558	1916.87122	47.33966	901.21051	2236.93091	58.84112	1100.91467	2247.63184	57.77254	1500.54077	2268.05518	58.24981	1516.13184	1946.88379	47.38104	
252	1.255	917.25922	1916.91138	47.28148	901.26874	2236.89209	58.79571	1100.92273	2247.61646	57.81947	1500.53381	2268.06299	58.25255	1516.18762	1946.89197	47.31366	
253	1.260	917.23895	1916.87598	47.33053	901.23358	2236.86035	58.84576	1100.93127	2247.64160	57.79539	1500.53809	2268.08521	58.28179	1516.16614	1946.88208	47.35791	
254	1.265	917.26166	1916.87231	47.29583	901.28625	2236.85913	58.82659	1100.91455	2247.62256	57.81140	1500.41040	2268.02002	58.33786	1516.18506	1946.87927	47.33620	
255	1.270	917.19513	1916.87402	47.36292	901.25781	2236.82715	58.89520	1100.93652	2247.61743	57.81704	1500.48438	2268.06567	58.33596	1516.13721	1946.88123	47.37959	
256	1.275	917.24133	1916.89014	47.34186	901.23816	2236.82788	58.87338	1100.90100	2247.61182	57.83857	1500.38513	2268.00610	58.45470	1516.11169	1946.86279	47.40197	
257	1.280	917.18762	1916.87158	47.39989	901.21808	2236.78687	58.95835	1100.83765	2247.61182	57.85107	1500.37244	2268.03101	58.39888	1516.08911	1946.85999	47.43259	
258	1.285	917.13507	1916.86804	47.39358	901.11365	2236.72192	59.06845	1100.76990	2247.58789	57.93523	1500.28784	2267.98071	58.49614	1516.03503	1946.85071	47.46523	
259	1.290	917.08478	1916.85046	47.47916	901.16656	2236.76611	58.99335	1100.71716	2247.59546	58.00692	1500.31604	2267.99951	58.43501	1515.99377	1946.83154	47.50819	
260	1.295	916.99475	1916.83752	47.56645	901.07843	2236.70825	59.01942	1100.71948	2247.58179	57.95977	1500.31982	2267.98608	58.44490	1515.93494	1946.83875	47.56185	
261	1.300	917.01068	1916.83582	47.50694	901.13110	2236.76416	59.02244	1100.67200	2247.54688	58.06893	1500.26270	2267.95923	58.49868	1515.95032	1946.83032	47.52419	
262	1.305	916.96527	1916.80481	47.59401	901.04449	2236.72534	59.10039	1100.67566	2247.58496	58.04742	1500.19653	2267.95728	58.53402	1515.86133	1946.80237	47.63348	
263	1.310	916.95129	1916.80627	47.59203	901.07739	2236.74048	59.07516	1100.60718	2247.53662	58.16621	1500.20483	2267.92700	58.54365	1515.87744	1946.82422	47.57784	
264	1.315	916.93726	1916.81067	47.63412	901.04773	2236.72974	59.10552	1100.64673	2247.54810	58.05920	1500.19128	2267.95239	58.58208	1515.84814	1946.80933	47.66059	
265	1.320	916.96375	1916.81177	47.61080	901.04767	2236.74756	59.15059	1100.61633	2247.56348	58.17605	1500.22009	2267.97339	58.56136	1515.89880	1946.82568	47.61742	
266	1.325	917.00562	1916.82043	47.57649	901.00043	2236.73364	59.16451	1100.64050	2247.56445	58.12350	1500.14832	2267.94800	58.61253	1515.86853	1946.81738	47.65455	
267	1.330	917.00208	1916.79285	47.57910	901.05731	2236.72388	59.07812	1100.62280	2247.53027	58.11794	1500.18933	2267.94653	58.59896	1515.90613	1946.79419	47.62732	
268	1.335	917.05774	1916.82935	47.51780	901.08508	2236.76367	59.09518	1100.70007	2247.55127	58.07887	1500.13818	2267.93555	58.66814	1515.94897	1946.82568	47.56448	
269	1.340	917.02533	1916.81299	47.57685	901.11090	2236.79126	59.01035	1100.74170	2247.55811	57.99305	1500.23523	2267.94702	58.57176	1515.98792	1946.83276	47.57818	
270	1.345	917.06958	1916.83386	47.50731	901.21210	2236.70386	58.94230	1100.74744	2247.57837	58.00712	1500.32751	2267.94897	58.44445	1515.99634	1946.81970	47.53548	
271	1.350	917.05615	1916.82520	47.53301	901.07416	2236.83594	59.03921	1100.78906	2247.56982	57.97871	1500.31677	2267.99390	58.49217	1515.97571	1946.84863	47.55376	
272	1.355	917.15039	1916.85950	47.43836	901.13568	2236.84570	58.94984	1100.79407	2247.59204	57.95871	1500.39429	2268.02222	58.40469	1516.04834	1946.83020	47.49908	
273	1.360	917.20386	1916.87476	47.35130	901.13391	2236.88159	58.95339	1100.83374	2247.57520	57.93304	1500.38477	2268.01147	58.47342	1516.05884	1946.85669	47.45746	
274	1.365	917.21210	1916.87415	47.34219	901.16827	2236.89844	58.86547	1100.88269	2247.63062	57.83447	1500.39929	2268.00000	58.35702	1516.11035	1946.86340	47.41936	
275	1.370	917.23029	1916.90088	47.29156	901.10944	2236.87769	58.92161	1100.88025	2247.60425	57.85167	1500.35327	2268.00391	58.43444	1516.13538	1946.87207	47.35278	
276	1.375	917.25391	1916.87817	47.28509	901.20819	2236.92310	58.79900	1100.86475	2247.61621	57.81948	1500.48376	2268.06323	58.25710	1516.14941	1946.87012	47.36821	
277	1.380	917.17761	1916.86926	47.35197	901.14374	2236.88965	58.88139	1100.92310	2247.61499	57.75289	1500.53662	2268.06372	58.24308	1516.10828	1946.88196	47.35796	
278	1.385	917.27740	1916.90137	47.24402	901.22955	2236.94604	58.76503	1100.89282	2247.63794	57.77679	1500.50610	2268.03906	58.21296	1516.18030	1946.88708	47.30515	
279	1.390	917.18549	1916.87659	47.33318	901.23401	2236.94507	58.71169	1100.94275	2247.63721	57.71890	1500.49170	2268.05054	58.24850	1516.16370	1946.88806	47.31784	
280	1.395	917.28729	1916.91528	47.25487	901.20282	2236.90454	58.77647	1100.91833	2247.62671	57.76439	1500.44409	2268.06787	58.32715	1516.18774	1946.89600	47.27515	
281	1.400	917.23700	1916.91138	47.28810	901.13843	2236.90747	58.84155	1100.92480	2247.63501	57.73494	1500.48206	2268.08276	58.27074	1516.14197	1946.88953	47.34082	
282	1.405	917.24011	1916.90698	47.29264	901.10028	2236.91553	58.94811	1100.85950	2247.62085	57.82890	1500.41333	2268.03076	58.37349	1516.09192	1946.86841	47.38795	
283	1.410	917.19421	1916.86975	47.37336	901.10449	2236.88843	58.92017	1100.78296	2247.58691	57.90806	1500.45972	2268.04736	58.30831	1516.10681	1946.87646	47.41359	
284	1.415	917.07330	1916.83997	47.46205	901.04749	2236.84521	58.99231	1100.81897	2247.57349	57.87889	1500.39893	2268.03882	58.39813	1516.03186	1946.85596	47.47153	
285	1.420	917.13385	1916.84802	47.45977	901.11804	2236.87769	58.93860	1100.71375	2247.56323	58.03450	1500.36914	2268.02002	58.44621	1516.03601	1946.84509	47.49679	
286	1.425	917.09344	1916.83545	47.48701	901.02240	2236.85474	59.08258	1100.77161	2247.58838	57.96770	1500.27502	2267.97046	58.52307	1515.96362	1946.83398	47.57660	
287	1.430	917.07324	1916.82788	47.52421	901.03558	2236.85596	59.06107	1100.77686	2247.54932	57.97803	1500.29016	2267.96899	58.53878	1515.98218	1946.82971	47.56197	
288	1.435	917.07855	1916.81555	47.53210	901.08313	2236.86646	59.01063	1100.71912	2247.55200	58.04750	1500.18677	2267.93188	58.65070	1515.97375	1946.82092	47.58472	
289	1.440	917.06299	1916.81458	47.54444	900.99908	2236.81177	59.09547	1100.71741	2247.53564	58.02134	1500.23315	2267.95215	58.58298	1515.92834	1946.80151	47.60905	
290	1.445	916.98901	1916.80127	47.65199	900.96014	2236.81958	59.18999	1100.69373	2247.56836	58.12099	1500.21899	2267.92383	58.59179	1515.85547	1946.77893	47.70899	
291	1.450	917.01898	1916.81604	47.61287	901.00378	2236.84229	59.08880	1100.64575	2247.54272	58.12778	1500.20020	2267.92041	58.58075	1515.92200	1946.78625	47.61835	
292	1.455	916.95148	1916.79187	47.64025	901.03955	2236.83398	59.06225	1100.71802	2247.55298	58.06419	1500.17712	2267.92334	58.66563	1515.89673	1946.79712	47.62010	
293	1.460	917.01581	1916.82874	47.57681	901.05518	2236.90039	59.01767	1100.67908	2247.57764	58.05932	1500.05615	2267.91333	58.70272	1515.91907	1946.80688	47.60402	
294	1.465	916.99451	1916.83325	47.58776	901.00507	2236.87183	59.05798	1100.71558	2247.57129	58.03553	1500.21716	2267.96191	58.58354	1515.88367	1946.80750	47.59132	
295	1.470	916.96198	1916.81238	47.61478	900.96411	2236.85303	59.12314	1100.69189	2247.57153	58.01493	1500.25415	2267.97290	58.49795	1515.86841	1946.80237	47.64734	
296	1.475	917.04004	1916.83655	47.49144	901.05200	2236.85010	58.97075	1100.73242	2247.57251	57.99620	1500.24744	2267.95386	58.51475	1515.96313	1946.85010	47.48921	
297	1.480	917.06628	1916.84583	47.44931	901.17340	2236.79517	58.91284	1100.76013	2247.59912	57.95797	1500.28857	2268.00366	58.41861	1515.95020	1946.83264	47.49679	
298	1.485	917.07715	1916.81787	47.42900	901.04492	2236.87891	58.98053	1100.73462	2247.58032	57.92882	1500.33130	2268.00610	58.41857	1515.92603	1946.82068	47.49541	
299	1.490	917.13580	1916.87085	47.37023	901.14764	2236.92236	58.82012	1100.77527	2247.60474	57.87712	1500.35864	2268.04395	58.33260	1516.02942	1946.84131	47.39786	
300	1.495	917.18170	1916.87158	47.29011	901.10968	2236.93457	58.86190	1100.87573	2247.62378	57.76783	1500.40564	2268.05469	58.31026	1516.06763	1946.87354	47.37527	
301	1.500	917.19122	1916.88403	47.28260	901.18994	2236.81006	58.85180	1100.83508	2247.64355	57.79214	1500.36853	2268.04663	58.32101	1516.06519	1946.86267	47.38329	
